<svg width="300" height="300" xmlns="http://www.w3.org/2000/svg">
 <title>noentry_R</title>
 <defs>
  <linearGradient y2="1" x2="1" y1="0" x1="0" id="svg_8">
   <stop offset="0" stop-color="#00addc"/>
   <stop offset="1" stop-color="#6bfbff"/>
  </linearGradient>
 </defs>
 <g>
  <title>background</title>
  <rect fill="none" id="canvas_background" height="302" width="302" y="-1" x="-1"/>
 </g>
 <g>
  <title>Layer 1</title>
<g
     id="g5"
     transform="matrix(1.3307804,0,0,1.3314313,1.3518321,1.3456942)"><linearGradient
       id="SVGID_1_"
       gradientUnits="userSpaceOnUse"
       x1="-43.8396"
       y1="-45.145401"
       x2="272.5983"
       y2="258.20679"
       gradientTransform="matrix(1,0.00546456,0.00546456,-1,-3.8006,218.0353)"><stop
         offset="0"
         style="stop-color:#00ADDC"
         id="stop8" /><stop
         offset="1"
         style="stop-color:#6BFBFF"
         id="stop10" /></linearGradient><path
       class="st0"
       d="m 111.7,216.8 c -0.2,0 -0.4,0 -0.6,0 C 53.1,216.5 6.2,169.1 6.5,111.1 6.9,53.3 54,6.5 111.7,6.5 c 0.2,0 0.4,0 0.6,0 58,0.3 104.9,47.7 104.6,105.7 l 0,0 C 216.5,170 169.4,216.8 111.7,216.8 Z m 0,-206.6 C 56,10.2 10.5,55.4 10.2,111.1 c -0.3,55.9 45,101.7 100.9,102 0.2,0 0.4,0 0.6,0 55.7,0 101.2,-45.2 101.5,-100.9 0.3,-55.9 -45,-101.7 -100.9,-102 -0.2,0 -0.4,0 -0.6,0 z"
       id="path12"
       style="fill:url(#SVGID_1_)"
       inkscape:connector-curvature="0" /></g>
  <path stroke="null" id="svg_1" fill="url(#svg_8)" fill-rule="evenodd" d="m160.64781,71.385981l3.753601,26.392232l61.404668,0l2.527626,1.481848l-65.657739,0l-3.904955,-27.874081l1.8768,0zm83.668968,71.997396l5.055252,5.595255l-77.342335,0l19.676132,90.5716l-11.230531,0l-13.485718,-96.166856l77.327199,0zm-190.843346,0l63.9777,96.166856l-12.804621,0l19.570184,-90.5716l-73.588734,0l3.481162,-5.595255l-0.63569,0zm84.788994,-71.997396l-3.223859,27.874081l-65.082591,0l2.497355,-1.481848l60.042474,0l4.540646,-26.392232l1.225974,0z"/>
  <path stroke="null" id="svg_2" fill="url(#svg_8)" fill-rule="evenodd" d="m124.670759,113.158778l28.545527,0c0.756774,0 1.4076,0.664277 1.513549,1.507398l3.027097,52.350129c0,1.251906 -0.665961,2.248322 -1.604362,2.248322l-13.500854,0a1.513549,2.554911 0 0 1 -1.680039,-2.248322l1.271381,-38.068176c0,-0.945317 -0.63569,-1.71179 -1.513549,-1.71179l-18.737732,0l-1.316787,5.109822s-0.9384,1.098612 -1.513549,0.536531l-12.60786,-12.238024c-0.575148,-0.510982 -0.454065,-1.328554 0.272439,-1.813987l17.723654,-10.960569c0.650826,-0.459884 1.120026,-0.178844 1.059484,0.613179l-0.9384,4.675487z"/>
  <path stroke="null" id="svg_3" fill="url(#svg_8)" fill-rule="evenodd" d="m144.937175,74.145285l-2.724388,23.684026a1.347058,2.273871 0 0 0 1.362194,2.376067l9.747253,0a1.347058,2.273871 0 0 0 1.362194,-2.376067l-2.709252,-23.684026l3.223859,0c0.620555,0 0.817316,-0.58763 0.423794,-1.277456l-6.583937,-11.982533a0.787045,1.328554 0 0 0 -1.165432,0l-6.599072,11.982533c-0.378387,0.689826 -0.196761,1.277456 0.423794,1.277456l3.238994,0z"/>
 </g>
</svg>
