<?xml version="1.0" encoding="UTF-8" standalone="no"?>
<!-- Generator: Adobe Illustrator 21.1.0, SVG Export Plug-In . SVG Version: 6.00 Build 0)  -->

<svg
   xmlns:i="&amp;#38;ns_ai;"
   xmlns:dc="http://purl.org/dc/elements/1.1/"
   xmlns:cc="http://creativecommons.org/ns#"
   xmlns:rdf="http://www.w3.org/1999/02/22-rdf-syntax-ns#"
   xmlns:svg="http://www.w3.org/2000/svg"
   xmlns="http://www.w3.org/2000/svg"
   xmlns:xlink="http://www.w3.org/1999/xlink"
   xmlns:sodipodi="http://sodipodi.sourceforge.net/DTD/sodipodi-0.dtd"
   xmlns:inkscape="http://www.inkscape.org/namespaces/inkscape"
   version="1.1"
   id="HVAC_Active"
   x="0px"
   y="0px"
   viewBox="0 0 300 300"
   style="enable-background:new 0 0 300 300;"
   xml:space="preserve"
   inkscape:version="0.91 r13725"
   sodipodi:docname="hudtbt_active.svg"><metadata
     id="metadata3708"><rdf:RDF><cc:Work
         rdf:about=""><dc:format>image/svg+xml</dc:format><dc:type
           rdf:resource="http://purl.org/dc/dcmitype/StillImage" /></cc:Work></rdf:RDF></metadata><defs
     id="defs3706"><linearGradient
       id="svg_8"
       x1="0"
       y1="0"
       x2="1"
       y2="1"><stop
         id="stop4163"
         stop-color="#00addc"
         offset="0" /><stop
         id="stop4165"
         stop-color="#6bfbff"
         offset="1" /></linearGradient><linearGradient
       inkscape:collect="always"
       xlink:href="#svg_8"
       id="linearGradient4196"
       x1="46.570423"
       y1="77.605621"
       x2="229.38631"
       y2="260.4215"
       gradientTransform="scale(1.0871269,0.9198558)"
       gradientUnits="userSpaceOnUse" /><linearGradient
       inkscape:collect="always"
       xlink:href="#svg_8"
       id="linearGradient4198"
       x1="116.09426"
       y1="98.465388"
       x2="172.46988"
       y2="154.84101"
       gradientTransform="scale(0.91469265,1.0932634)"
       gradientUnits="userSpaceOnUse" /><linearGradient
       inkscape:collect="always"
       xlink:href="#svg_8"
       id="linearGradient4200"
       x1="231.62418"
       y1="36.818759"
       x2="255.83864"
       y2="61.033212"
       gradientTransform="scale(0.60908016,1.64182)"
       gradientUnits="userSpaceOnUse" /></defs><sodipodi:namedview
     pagecolor="#ffffff"
     bordercolor="#666666"
     borderopacity="1"
     objecttolerance="10"
     gridtolerance="10"
     guidetolerance="10"
     inkscape:pageopacity="0"
     inkscape:pageshadow="2"
     inkscape:window-width="1002"
     inkscape:window-height="778"
     id="namedview3704"
     showgrid="false"
     inkscape:zoom="0.78666667"
     inkscape:cx="168.40457"
     inkscape:cy="150"
     inkscape:window-x="75"
     inkscape:window-y="34"
     inkscape:window-maximized="0"
     inkscape:current-layer="HVAC_Active" /><style
     type="text/css"
     id="style3659">
    .st0{fill:url(#SVGID_1_);}
    .st1{opacity:0.4;fill:url(#SVGID_2_);}
    .st2{fill:url(#SVGID_3_);}
  </style><switch
     id="switch3661"
     transform="matrix(1.3314132,0,0,1.3314132,5.608242,5.2107165)"><g
       i:extraneous="self"
       id="g3663"><linearGradient
         id="SVGID_1_"
         gradientUnits="userSpaceOnUse"
         x1="65.307999"
         y1="229.46629"
         x2="205.7616"
         y2="-158.244"><stop
           offset="0"
           style="stop-color:#0DF9FF"
           id="stop3666" /><stop
           offset="9.208472e-02"
           style="stop-color:#0DF9FF;stop-opacity:0.853"
           id="stop3668" /><stop
           offset="0.6264"
           style="stop-color:#0DF9FF;stop-opacity:0"
           id="stop3670" /></linearGradient><circle
         class="st0"
         cx="109.1"
         cy="108.7"
         r="101.9"
         id="circle3672"
         style="fill:url(#SVGID_1_)" /><linearGradient
         id="SVGID_2_"
         gradientUnits="userSpaceOnUse"
         x1="-106.5709"
         y1="410.58551"
         x2="166.1564"
         y2="28.7673"><stop
           offset="0.2978"
           style="stop-color:#FFFFFF;stop-opacity:0"
           id="stop3675" /><stop
           offset="0.3685"
           style="stop-color:#FAFAFA;stop-opacity:0.1007"
           id="stop3677" /><stop
           offset="0.4554"
           style="stop-color:#EBEBEB;stop-opacity:0.2245"
           id="stop3679" /><stop
           offset="0.5508"
           style="stop-color:#D2D2D2;stop-opacity:0.3603"
           id="stop3681" /><stop
           offset="0.6523"
           style="stop-color:#AFAFAF;stop-opacity:0.5048"
           id="stop3683" /><stop
           offset="0.7585"
           style="stop-color:#828282;stop-opacity:0.6562"
           id="stop3685" /><stop
           offset="0.8689"
           style="stop-color:#4B4B4B;stop-opacity:0.8133"
           id="stop3687" /><stop
           offset="0.9806"
           style="stop-color:#0C0C0C;stop-opacity:0.9724"
           id="stop3689" /><stop
           offset="1"
           style="stop-color:#000000"
           id="stop3691" /></linearGradient><circle
         class="st1"
         cx="109.1"
         cy="108.7"
         r="101.9"
         id="circle3693"
         style="opacity:0.4;fill:url(#SVGID_2_)" /><g
         id="g3695"><linearGradient
           id="SVGID_3_"
           gradientUnits="userSpaceOnUse"
           x1="-47.346401"
           y1="263.00369"
           x2="269.0914"
           y2="-40.3484"
           gradientTransform="matrix(1,0.00546456,-0.00546456,1,-2.3177,-2.7461)"><stop
             offset="0"
             style="stop-color:#00ADDC"
             id="stop3698" /><stop
             offset="1"
             style="stop-color:#6BFBFF"
             id="stop3700" /></linearGradient><path
           class="st2"
           d="m 108.5,213.9 c -0.2,0 -0.4,0 -0.6,0 C 49.9,213.5 3,166.1 3.3,108.1 3.6,50.4 50.7,3.6 108.4,3.6 c 0.2,0 0.4,0 0.6,0 58,0.3 104.9,47.7 104.6,105.7 l 0,0 c -0.3,57.8 -47.4,104.6 -105.1,104.6 z M 108.4,7.2 C 52.7,7.2 7.3,52.4 7,108.2 c -0.3,55.9 45,101.7 100.9,102 0.2,0 0.4,0 0.6,0 C 164.2,210.2 209.7,165 210,109.3 210.3,53.4 165,7.6 109.1,7.3 108.8,7.2 108.6,7.2 108.4,7.2 Z"
           id="path3702"
           style="fill:url(#SVGID_3_)"
           inkscape:connector-curvature="0" /></g></g></switch><g
     id="g4186"><g
       id="g4167"><title
         id="title4169">background</title><rect
         x="-1"
         y="-1"
         width="302"
         height="302"
         id="canvas_background"
         style="fill:none" /></g><g
       id="g4172"><title
         id="title4174">Layer 1</title><path
         d="m 160.64781,71.385981 3.7536,26.392232 61.40467,0 2.52762,1.481848 -65.65773,0 -3.90496,-27.874081 1.8768,0 z m 83.66897,71.997399 5.05525,5.59525 -77.34234,0 19.67614,90.5716 -11.23053,0 -13.48572,-96.16685 77.3272,0 z m -190.843348,0 63.977698,96.16685 -12.80462,0 19.57019,-90.5716 -73.588739,0 3.481162,-5.59525 -0.63569,0 z m 84.788998,-71.997399 -3.22386,27.874081 -65.082594,0 2.497355,-1.481848 60.042479,0 4.54064,-26.392232 1.22598,0 z"
         id="svg_1"
         stroke="null"
         inkscape:connector-curvature="0"
         style="fill:url(#linearGradient4196);fill-rule:evenodd" /><path
         d="m 124.67076,113.15878 28.54553,0 c 0.75677,0 1.4076,0.66427 1.51354,1.5074 l 3.0271,52.35012 c 0,1.25191 -0.66596,2.24833 -1.60436,2.24833 l -13.50085,0 a 1.513549,2.554911 0 0 1 -1.68004,-2.24833 l 1.27138,-38.06817 c 0,-0.94532 -0.63569,-1.71179 -1.51355,-1.71179 l -18.73773,0 -1.31679,5.10982 c 0,0 -0.9384,1.09861 -1.51355,0.53653 l -12.60786,-12.23802 c -0.57515,-0.51098 -0.45406,-1.32856 0.27244,-1.81399 l 17.72365,-10.96057 c 0.65083,-0.45988 1.12003,-0.17884 1.05949,0.61318 l -0.9384,4.67549 z"
         id="svg_2"
         stroke="null"
         inkscape:connector-curvature="0"
         style="fill:url(#linearGradient4198);fill-rule:evenodd" /><path
         d="m 144.93717,74.145285 -2.72438,23.684026 a 1.347058,2.273871 0 0 0 1.36219,2.376069 l 9.74725,0 a 1.347058,2.273871 0 0 0 1.3622,-2.376069 l -2.70925,-23.684026 3.22385,0 c 0.62056,0 0.81732,-0.58763 0.4238,-1.277456 l -6.58394,-11.982533 a 0.787045,1.328554 0 0 0 -1.16543,0 l -6.59907,11.982533 c -0.37839,0.689826 -0.19676,1.277456 0.42379,1.277456 l 3.239,0 z"
         id="svg_3"
         stroke="null"
         inkscape:connector-curvature="0"
         style="fill:url(#linearGradient4200);fill-rule:evenodd" /></g></g></svg>