<svg xmlns="http://www.w3.org/2000/svg" xmlns:xlink="http://www.w3.org/1999/xlink" viewBox="0 0 300 300"><defs><linearGradient id="名称未設定グラデーション_11" x1="144.97" y1="246.13" x2="144.97" y2="65.99" gradientUnits="userSpaceOnUse"><stop offset="0" stop-color="#00b9e1"/><stop offset="1" stop-color="#79f8ff"/></linearGradient><linearGradient id="名称未設定グラデーション_3" x1="-533.62" y1="119.81" x2="-217.19" y2="423.16" gradientTransform="matrix(1.33, 0.01, 0.01, -1.33, 646.93, 514.83)" gradientUnits="userSpaceOnUse"><stop offset="0" stop-color="#00addc"/><stop offset="1" stop-color="#6bfbff"/></linearGradient></defs><title>sdlusb</title><g id="レイヤー_6" data-name="レイヤー 6"><path d="M119.35,188.05l-57.2-26.54V132.88L120.68,160l36.21-15.83L98.06,116.84l21-10.49L176.55,133v18.83a14.86,14.86,0,0,1,5-.88H182V95L119.35,66,56.71,95v70l62.64,29.06,48.41-22.46a14.63,14.63,0,0,1-1.15-5.47ZM62.15,98.52,119.35,72l57.2,26.54V127L119,100.31,85.54,117l58.12,27-22.92,10L62.15,126.88Zm154.77,41.53v16.32h5.44v13.71l-15.64,13.56V127.55h11.56l-14.6-29.92-12.6,29.92h10.2v72.61l-17-13.81V175a9.52,9.52,0,1,0-5.44,0v13.93l22.44,18.23v12a13.6,13.6,0,1,0,5.44,0V190.84l21.08-18.27v-16.2h5.44V140.05Z" style="fill:url(#名称未設定グラデーション_11)"/></g><g id="レイヤー_3" data-name="レイヤー 3"><path id="path3686" d="M150,290h-.8C72,289.6,9.6,226.49,10,149.27,10.53,72.31,73.21,10,150,10h.8C228,10.4,290.4,73.51,290,150.73h0C289.47,227.69,226.79,290,150,290Zm0-275.07c-74.12,0-134.67,60.18-135.07,134.34-.4,74.42,59.88,135.4,134.27,135.8h.8c74.12,0,134.67-60.18,135.07-134.34.4-74.42-59.88-135.4-134.27-135.8Z" style="fill:url(#名称未設定グラデーション_3)"/></g></svg>