<svg xmlns="http://www.w3.org/2000/svg" xmlns:xlink="http://www.w3.org/1999/xlink" viewBox="0 0 300 300"><defs><linearGradient id="名称未設定グラデーション_11" x1="146.5" y1="241.64" x2="146.5" y2="65.99" gradientUnits="userSpaceOnUse"><stop offset="0" stop-color="#00b9e1"/><stop offset="1" stop-color="#79f8ff"/></linearGradient><linearGradient id="名称未設定グラデーション_3" x1="-447.43" y1="118.39" x2="-130.99" y2="421.74" gradientTransform="matrix(1.33, 0.01, 0.01, -1.33, 532.24, 512.31)" gradientUnits="userSpaceOnUse"><stop offset="0" stop-color="#00addc"/><stop offset="1" stop-color="#6bfbff"/></linearGradient></defs><title>sdlbt</title><g id="レイヤー_6" data-name="レイヤー 6"><path d="M178.8,162.46l-55.17,25.59-57.2-26.54V132.88L125,160l36.21-15.83-58.83-27.36,21-10.49L180.83,133v8.52l5.44,5.39V95L123.63,66,61,95v70l62.64,29.06,59.3-27.51ZM66.43,98.52,123.63,72l57.2,26.54V127l-57.6-26.68L89.82,117l58.12,27-22.92,10L66.43,126.88ZM232,145.21l-34.1-41.84v62.68l-24.78-24.52-3.82,3.86,27.39,27.12L169.3,199.62l3.82,3.87L197.9,179v62.67L232,199.81l-27.58-27.3Zm-28.66-26.55,21.32,26.16-21.32,21.11Zm21.32,81.54-21.32,26.16V179.09Z" style="fill:url(#名称未設定グラデーション_11)"/></g><g id="レイヤー_3" data-name="レイヤー 3"><path id="path3686" d="M150,290h-.8C72,289.6,9.6,226.49,10,149.27,10.53,72.31,73.21,10,150,10h.8C228,10.4,290.4,73.51,290,150.73h0C289.47,227.69,226.79,290,150,290Zm0-275.07c-74.12,0-134.67,60.18-135.07,134.34-.4,74.42,59.88,135.4,134.27,135.8h.8c74.12,0,134.67-60.18,135.07-134.34.4-74.42-59.88-135.4-134.27-135.8Z" style="fill:url(#名称未設定グラデーション_3)"/></g></svg>