<svg xmlns="http://www.w3.org/2000/svg" viewBox="0 0 205 95"><title>アセット 8</title><g id="レイヤー_2" data-name="レイヤー 2"><g id="レイヤー_5" data-name="レイヤー 5"><path d="M76.91,66l-4.14-2.55c.16-.25.31-.5.45-.76l4.21,2.43C77.26,65.42,77.08,65.71,76.91,66Zm-60.29-.54-.49-.89L20.65,62l.43.76Zm57-31.09-.43-.77,4.21-2.43.49.88ZM21,33.67l-4.21-2.43.52-.87,4.14,2.54C21.32,33.16,21.17,33.41,21,33.67ZM48,18.58l-.88,0h-.07V13.71h1.09Z" style="fill:#00e0ff"/><path d="M47,12A36.47,36.47,0,0,0,10.58,48.41,40.85,40.85,0,0,0,15.8,67.77l.07,0,7.25-4.44L22.38,62c-.14-.24-.28-.48-.41-.72l-.73-1.34-4.69,2.67a37.21,37.21,0,0,1-3-14.2,33.29,33.29,0,0,1,3.66-15.19l4.34,2.49.75-1.29.42-.72.79-1.28-4.28-2.63A33.43,33.43,0,0,1,45.56,15v3.56l.07,1.5h1.5l.84,0,1.5,0,.14-5A35.46,35.46,0,0,1,76,30.26l-4.84,2.8.76,1.3c.14.24.27.48.4.72L73,36.4l5-2.73A31.8,31.8,0,0,1,81.8,48.54a29.59,29.59,0,0,1-4.37,14.85l-4.75-2.74-.76,1.29c-.13.24-.28.48-.42.72l-.79,1.27L77.3,68l0,0c.27-.24.81-.77.82-.79,3.72-3.69,6.64-11.91,6.64-18.7C84.8,28.71,67.5,12,47,12Z" style="fill:#a7a7a7"/><path d="M47.69,52a4.63,4.63,0,1,1,4.63-4.63A4.63,4.63,0,0,1,47.69,52Zm0-6.26a1.63,1.63,0,1,0,1.63,1.63A1.63,1.63,0,0,0,47.69,45.73Z" style="fill:#a7a7a7"/><rect x="25.54" y="53.24" width="19.52" height="3" transform="matrix(0.86, -0.52, 0.52, 0.86, -23.19, 26.07)" style="fill:#a7a7a7"/><path d="M184.69,66l-4.13-2.55.45-.76,4.2,2.43C185,65.42,184.87,65.71,184.69,66Z" style="fill:#00e0ff"/><path d="M124.41,65.46c-.17-.3-.34-.59-.5-.89L128.44,62c.14.25.28.51.43.76Z" style="fill:#00e0ff"/><path d="M181.41,34.37c-.13-.26-.28-.51-.42-.77l4.2-2.43c.17.29.33.59.49.88Z" style="fill:#00e0ff"/><path d="M128.81,33.67l-4.21-2.43c.17-.29.35-.58.53-.87l4.13,2.54Z" style="fill:#00e0ff"/><path d="M154.8,12a36.48,36.48,0,0,0-36.44,36.44,40.75,40.75,0,0,0,5.23,19.36l.06,0,7.25-4.44L130.16,62c-.14-.24-.27-.48-.4-.72L129,59.94l-4.69,2.67a37.21,37.21,0,0,1-3-14.2A33.29,33.29,0,0,1,125,33.22l4.34,2.49.75-1.29c.14-.24.28-.48.43-.72l.78-1.28L127,29.79A33.43,33.43,0,0,1,153.34,15v3.56l.08,1.5h1.5l.83,0,1.5,0,.14-5a35.44,35.44,0,0,1,26.38,15.18l-4.83,2.8.75,1.3.41.72.71,1.32,5-2.73a31.8,31.8,0,0,1,3.74,14.87,29.49,29.49,0,0,1-4.37,14.85l-4.75-2.74-.75,1.29c-.14.24-.28.48-.43.72l-.79,1.27,6.6,4.07,0,0c.27-.24.82-.77.82-.79,3.73-3.69,6.64-11.91,6.64-18.7C192.58,28.71,175.28,12,154.8,12Z" style="fill:#a7a7a7"/><path d="M155.47,52a4.63,4.63,0,1,1,4.63-4.63A4.63,4.63,0,0,1,155.47,52Zm0-6.26a1.63,1.63,0,1,0,1.63,1.63A1.63,1.63,0,0,0,155.47,45.73Z" style="fill:#a7a7a7"/><rect x="133.33" y="53.24" width="19.52" height="3" transform="matrix(0.86, -0.52, 0.52, 0.86, -7.73, 81.68)" style="fill:#a7a7a7"/><path d="M158.5,95H47.5a47.5,47.5,0,0,1,0-95H160V.08a47.48,47.48,0,0,1,31.42,80.66A47.21,47.21,0,0,1,160,94.92V95ZM47.5,3a44.5,44.5,0,0,0,0,89H157.84l.63,0A44.74,44.74,0,0,0,202,47.5,44.73,44.73,0,0,0,158.47,3L157.3,3Z" style="fill:#a7a7a7"/></g></g></svg>