<svg xmlns="http://www.w3.org/2000/svg" viewBox="0 0 199.2 102.75"><title>アセット 6</title><g id="レイヤー_2" data-name="レイヤー 2"><g id="レイヤー_5" data-name="レイヤー 5"><path d="M199.2,102.75h-1.66c-20.47,0-33.72-1.86-46.52-3.67-13.06-1.84-26.56-3.74-48-3.74-24.42,0-40.89,2-56.82,4-14,1.75-27.3,3.39-44.58,3.39H0l.17-1.65C1.74,85.92,3.34,69.71,4.88,54S8,22.13,9.59,6.94A7.72,7.72,0,0,1,17.29,0H181.67a8,8,0,0,1,8,7.18ZM103.06,92.34c21.61,0,35.22,1.92,48.37,3.77,12.93,1.82,25.16,3.54,44.45,3.64L186.65,7.48a5,5,0,0,0-5-4.48H17.29a4.72,4.72,0,0,0-4.71,4.25C11,22.43,9.41,38.64,7.87,54.32,6.38,69.43,4.84,85,3.33,99.75c16.29-.1,29.05-1.69,42.54-3.36C61.89,94.4,78.45,92.34,103.06,92.34Z" style="fill:#a7a7a7"/><rect x="97.47" y="1.26" width="3.74" height="6.26" style="fill:#a7a7a7"/><path d="M114.49,17.11H84.71a3.4,3.4,0,0,1-3.4-3.39V9.93a3.4,3.4,0,0,1,3.4-3.4h29.78a3.4,3.4,0,0,1,3.4,3.4v3.79A3.4,3.4,0,0,1,114.49,17.11ZM84.71,9.53a.4.4,0,0,0-.4.4v3.79a.39.39,0,0,0,.4.39h29.78a.39.39,0,0,0,.4-.39V9.93a.4.4,0,0,0-.4-.4Z" style="fill:#a7a7a7"/><rect x="101.92" y="10.18" width="10.07" height="3" transform="translate(23.07 79.06) rotate(-45)" style="fill:#a7a7a7"/><rect x="94.57" y="10.18" width="10.07" height="3" transform="translate(20.91 73.85) rotate(-45)" style="fill:#a7a7a7"/><polygon points="95.74 44.7 92.74 44.7 92.74 35.63 100.29 35.63 100.29 38.63 95.74 38.63 95.74 44.7" style="fill:#b0b1b0"/><polygon points="98.94 41.77 106.97 37.13 98.94 32.49 98.94 41.77" style="fill:#b0b1b0"/><path d="M114.58,53.34H84.63V25h30Zm-26.95-3h24V28h-24Z" style="fill:#b0b1b0"/><polygon points="57.98 87.23 55.22 86.04 67.32 58.01 27.6 58.01 27.6 55.01 71.88 55.01 57.98 87.23" style="fill:#a7a7a7"/><polygon points="141.22 87.23 127.32 55.01 171.6 55.01 171.6 58.01 131.88 58.01 143.98 86.04 141.22 87.23" style="fill:#a7a7a7"/><path d="M101.1,82.84h-3v-6h3Zm0-10h-3v-6h3Zm0-10h-3v-6h3Z" style="fill:#a7a7a7"/><rect x="32.14" y="37.34" width="49.85" height="3" style="fill:#a7a7a7"/><rect x="117.32" y="37.34" width="49.85" height="3" style="fill:#a7a7a7"/></g></g></svg>