<?xml version="1.0" encoding="utf-8"?>
<!-- Generator: Adobe Illustrator 23.0.4, SVG Export Plug-In . SVG Version: 6.00 Build 0)  -->
<svg version="1.1" id="レイヤー_1" xmlns="http://www.w3.org/2000/svg" xmlns:xlink="http://www.w3.org/1999/xlink" x="0px"
	 y="0px" viewBox="0 0 157.6 118.7" style="enable-background:new 0 0 157.6 118.7;" xml:space="preserve">
<style type="text/css">
	.st0{fill:#A7A7A7;}
</style>
<title>アセット 7</title>
<g>
	<g id="レイヤー_5">
		<path class="st0" d="M143.9,89.1H13.7c-3.9,0-7-3.2-7-7.1c0,0,0,0,0,0V16.8c0-4.4,8.6-8.4,25.7-11.9c16-3.2,32.2-4.8,48.4-4.9
			c15.5,0.2,30.8,2.1,45.9,5.6c16,3.7,24.1,7.5,24.1,11.2v65.2C150.9,85.8,147.8,89,143.9,89.1z M80.8,3c-16,0.1-32,1.7-47.8,4.9
			c-19.1,3.9-23.3,7.8-23.3,8.9v65.2c-0.1,2.2,1.7,4.1,4,4.2c0,0,0,0,0,0h130.2c2.2,0,4-1.9,4-4.1c0,0,0,0,0,0V16.8
			c-0.3-1.1-6.2-4.7-22.6-8.5C110.7,5,95.8,3.2,80.8,3z"/>
		<path class="st0" d="M141.1,80.8H16.5V21.2h124.6V80.8z M19.5,77.8h118.6V24.2H19.5L19.5,77.8z"/>
		<rect x="72.7" y="34.4" transform="matrix(0.6934 -0.7206 0.7206 0.6934 1.9352 76.3602)" class="st0" width="36" height="3"/>
		
			<rect x="58.4" y="56.7" transform="matrix(0.6934 -0.7206 0.7206 0.6934 -15.1139 80.9448)" class="st0" width="58.2" height="3"/>
		<rect x="32.8" y="87.9" class="st0" width="3" height="16.2"/>
		<rect x="39.3" y="87.9" class="st0" width="3" height="16.2"/>
		<rect x="116.7" y="87.9" class="st0" width="3" height="16.2"/>
		<rect x="123.1" y="87.9" class="st0" width="3" height="16.2"/>
	</g>
</g>
<path class="st0" d="M3.1,117.2l0.8-7.2v-0.2c0,0,0,0,0,0c-0.1-2.7,2-4.9,4.7-5H149c0,0,0,0,0,0c2.7,0.1,4.8,2.3,4.7,5l0.7,7.4h3
	l-0.8-7.5c0-4.3-3.4-7.8-7.7-7.9H8.6c-4.3,0.1-7.7,3.6-7.7,7.9l-0.8,7.5H3.1z"/>
</svg>
