<svg xmlns="http://www.w3.org/2000/svg" viewBox="0 0 96.06 123.05"><title>アセット 9</title><g id="レイヤー_2" data-name="レイヤー 2"><g id="レイヤー_1-2" data-name="レイヤー 1"><path d="M74.5,13H2.5a2.5,2.5,0,0,1,0-5h72a2.5,2.5,0,0,1,0,5Z" style="fill:#a7a7a7"/><path d="M52.14,13a1.5,1.5,0,0,1-1.5-1.5v-7A1.45,1.45,0,0,0,49.19,3H26.81a1.45,1.45,0,0,0-1.45,1.45v7a1.5,1.5,0,1,1-3,0v-7A4.46,4.46,0,0,1,26.81,0H49.19a4.46,4.46,0,0,1,4.45,4.45v7A1.5,1.5,0,0,1,52.14,13Z" style="fill:#a7a7a7"/><path d="M40.72,100H44c0-.33,0-.66,0-1A28,28,0,0,1,53.76,77.7V32.49a2,2,0,0,1,4,0V74.83a27.93,27.93,0,0,1,13.75-3.89L76,21.63A1.49,1.49,0,0,0,74.5,20H2.5A1.49,1.49,0,0,0,1,21.63l7,77A1.49,1.49,0,0,0,9.5,100H19.79a2.34,2.34,0,0,1,0-.38V32.49a2,2,0,1,1,4,0V99.61a2.33,2.33,0,0,1,0,.38H36.79a2.34,2.34,0,0,1,0-.38V32.49a2,2,0,1,1,4,0V99.61A2.33,2.33,0,0,1,40.72,100Z" style="fill:#a7a7a7"/><path d="M72,74.93A24.06,24.06,0,1,0,96.06,99,24.06,24.06,0,0,0,72,74.93Zm12.46,36.41a2.51,2.51,0,0,1-3.54,0l-8.8-8.81-8.81,8.81a2.51,2.51,0,0,1-3.54,0,2.52,2.52,0,0,1,0-3.54L68.58,99l-8.81-8.81a2.5,2.5,0,0,1,3.54-3.53l8.81,8.8,8.8-8.81a2.5,2.5,0,0,1,3.54,3.54L75.65,99l8.81,8.8A2.5,2.5,0,0,1,84.46,111.34Z" style="fill:#a7a7a7"/></g></g></svg>