<svg xmlns="http://www.w3.org/2000/svg" xmlns:xlink="http://www.w3.org/1999/xlink" viewBox="0 0 300 300"><defs><linearGradient id="名称未設定グラデーション" x1="-252.86" y1="144.45" x2="-112.41" y2="532.16" gradientTransform="matrix(1.33, 0, 0, -1.33, 428.01, 503.07)" gradientUnits="userSpaceOnUse"><stop offset="0" stop-color="#0df9ff"/><stop offset="0.09" stop-color="#0df9ff" stop-opacity="0.85"/><stop offset="0.63" stop-color="#0df9ff" stop-opacity="0"/></linearGradient><linearGradient id="名称未設定グラデーション_2" x1="-424.74" y1="-36.65" x2="-152.01" y2="345.17" gradientTransform="matrix(1.33, 0, 0, -1.33, 428.01, 503.07)" gradientUnits="userSpaceOnUse"><stop offset="0.3" stop-color="#fff" stop-opacity="0"/><stop offset="0.37" stop-color="#fafafa" stop-opacity="0.1"/><stop offset="0.46" stop-color="#ebebeb" stop-opacity="0.22"/><stop offset="0.55" stop-color="#d2d2d2" stop-opacity="0.36"/><stop offset="0.65" stop-color="#afafaf" stop-opacity="0.5"/><stop offset="0.76" stop-color="#828282" stop-opacity="0.66"/><stop offset="0.87" stop-color="#4b4b4b" stop-opacity="0.81"/><stop offset="0.98" stop-color="#0c0c0c" stop-opacity="0.97"/><stop offset="1"/></linearGradient><linearGradient id="名称未設定グラデーション_3" x1="146.56" y1="259.73" x2="146.56" y2="65.91" gradientUnits="userSpaceOnUse"><stop offset="0" stop-color="#00addc"/><stop offset="1" stop-color="#6bfbff"/></linearGradient><linearGradient id="名称未設定グラデーション_3-2" x1="-363.3" y1="117" x2="-46.86" y2="420.35" gradientTransform="matrix(1.33, 0.01, 0.01, -1.33, 420.29, 509.85)" xlink:href="#名称未設定グラデーション_3"/></defs><title>アートボード 1 のコピー 2</title><g id="レイヤー_2" data-name="レイヤー 2"><ellipse id="circle3656" cx="149.73" cy="149.93" rx="135.61" ry="135.67" style="fill:url(#名称未設定グラデーション)"/></g><g id="レイヤー_4" data-name="レイヤー 4"><ellipse id="circle3677" cx="149.73" cy="149.93" rx="135.61" ry="135.67" style="opacity:0.400000005960465;isolation:isolate;fill:url(#名称未設定グラデーション_2)"/></g><g id="レイヤー_6" data-name="レイヤー 6"><path d="M151.09,134.19,103,112.48l-2.27,4.94,44.91,20.33v73.63h5.44Zm-39.95-29.91-27,2.53,15.69,22.12ZM147,148.21m90.35-13.8L88.81,65.91l-2.17,5,148.55,68.5ZM185,196.09l38.62,17.71,2.23-5-46.29-21.16v59.81H185ZM111.65,157,58.18,130.89l-2.43,4.88,50.46,24.58v87.14h5.44Zm15,102.75" style="fill:url(#名称未設定グラデーション_3)"/></g><g id="レイヤー_3" data-name="レイヤー 3"><path id="path3686" d="M150,290h-.8C72,289.6,9.6,226.49,10,149.27,10.53,72.31,73.21,10,150,10h.8C228,10.4,290.4,73.51,290,150.73h0C289.47,227.69,226.79,290,150,290Zm0-275.07c-74.12,0-134.67,60.18-135.07,134.34-.4,74.42,59.88,135.4,134.27,135.8h.8c74.12,0,134.67-60.18,135.07-134.34.4-74.42-59.88-135.4-134.27-135.8Z" style="fill:url(#名称未設定グラデーション_3-2)"/></g></svg>