<svg xmlns="http://www.w3.org/2000/svg" xmlns:xlink="http://www.w3.org/1999/xlink" viewBox="0 0 300 300"><defs><linearGradient id="名称未設定グラデーション" x1="-170.4" y1="144.45" x2="-29.95" y2="532.16" gradientTransform="matrix(1.33, 0, 0, -1.33, 318.27, 503.07)" gradientUnits="userSpaceOnUse"><stop offset="0" stop-color="#0df9ff"/><stop offset="0.09" stop-color="#0df9ff" stop-opacity="0.85"/><stop offset="0.63" stop-color="#0df9ff" stop-opacity="0"/></linearGradient><linearGradient id="名称未設定グラデーション_2" x1="-342.28" y1="-36.65" x2="-69.55" y2="345.17" gradientTransform="matrix(1.33, 0, 0, -1.33, 318.27, 503.07)" gradientUnits="userSpaceOnUse"><stop offset="0.3" stop-color="#fff" stop-opacity="0"/><stop offset="0.37" stop-color="#fafafa" stop-opacity="0.1"/><stop offset="0.46" stop-color="#ebebeb" stop-opacity="0.22"/><stop offset="0.55" stop-color="#d2d2d2" stop-opacity="0.36"/><stop offset="0.65" stop-color="#afafaf" stop-opacity="0.5"/><stop offset="0.76" stop-color="#828282" stop-opacity="0.66"/><stop offset="0.87" stop-color="#4b4b4b" stop-opacity="0.81"/><stop offset="0.98" stop-color="#0c0c0c" stop-opacity="0.97"/><stop offset="1"/></linearGradient><linearGradient id="名称未設定グラデーション_11" x1="146.83" y1="215.69" x2="146.83" y2="65.47" gradientUnits="userSpaceOnUse"><stop offset="0" stop-color="#00b9e1"/><stop offset="1" stop-color="#79f8ff"/></linearGradient><linearGradient id="名称未設定グラデーション_3" x1="-280.84" y1="115.63" x2="35.6" y2="418.99" gradientTransform="matrix(1.33, 0.01, 0.01, -1.33, 310.56, 507.44)" gradientUnits="userSpaceOnUse"><stop offset="0" stop-color="#00addc"/><stop offset="1" stop-color="#6bfbff"/></linearGradient></defs><title>アートボード 1 のコピー</title><g id="レイヤー_2" data-name="レイヤー 2"><ellipse id="circle3656" cx="149.73" cy="149.93" rx="135.61" ry="135.67" style="fill:url(#名称未設定グラデーション)"/></g><g id="レイヤー_4" data-name="レイヤー 4"><ellipse id="circle3677" cx="149.73" cy="149.93" rx="135.61" ry="135.67" style="opacity:0.400000005960465;isolation:isolate;fill:url(#名称未設定グラデーション_2)"/></g><g id="レイヤー_6" data-name="レイヤー 6"><path d="M198.54,215.69l-79-.1a60.23,60.23,0,0,1-16.57-2.41,15.66,15.66,0,0,1-6.75-4.24,10.25,10.25,0,0,1-3.27-7.15V143.45h30.42v53.06c0,2.73.84,4.62,4.88,4.94h3.55a31.05,31.05,0,0,1-1.31-4.55l-.07-.59q0-2.22.1-50.15v-2.71h30.32V198c0,1.21,0,3.23,5.06,3.48h2.27v-58h30.42Zm-100.2-66.8v52.9a5.13,5.13,0,0,0,1.74,3.37,10.15,10.15,0,0,0,4.38,2.8,54.72,54.72,0,0,0,15,2.19l73.61.09V148.89H173.56v58h-7.85c-9.36-.44-10.36-6.38-10.36-8.91V148.89H135.9q-.09,43.1-.09,47.12c1.1,4.76,2.19,5.51,2.2,5.51a.73.73,0,0,0-.29-.07v5.44H127.9c-6.46-.48-10-4.17-10-10.38V148.89Zm124.5-16.07h-152l77.1-67.35ZM85.32,127.38H208.65L147.87,72.74Z" style="fill:url(#名称未設定グラデーション_11)"/></g><g id="レイヤー_3" data-name="レイヤー 3"><path id="path3686" d="M150,290h-.8C72,289.6,9.6,226.49,10,149.27,10.53,72.31,73.21,10,150,10h.8C228,10.4,290.4,73.51,290,150.73h0C289.47,227.69,226.79,290,150,290Zm0-275.07c-74.12,0-134.67,60.18-135.07,134.34-.4,74.42,59.88,135.4,134.27,135.8h.8c74.12,0,134.67-60.18,135.07-134.34.4-74.42-59.88-135.4-134.27-135.8Z" style="fill:url(#名称未設定グラデーション_3)"/></g></svg>